<svg xmlns="http://www.w3.org/2000/svg" data-name="Layer 1" viewBox="0 0 100 125" x="0px" y="0px"><title>Zoom Search Home Bell Dollar UI OL</title><path d="M94.31738,50.76691l-42.5-45.0166a2.57613,2.57613,0,0,0-3.63476,0l-42.5,45.0166A2.501,2.501,0,0,0,7.5,54.98523H16V92.49908A2.50028,2.50028,0,0,0,18.5,95h24A2.50028,2.50028,0,0,0,45,92.49908V69.99078H55v22.5083A2.50028,2.50028,0,0,0,57.5,95h24A2.50028,2.50028,0,0,0,84,92.49908V54.98523h8.5a2.501,2.501,0,0,0,1.81738-4.21832ZM81.5,49.9834A2.50028,2.50028,0,0,0,79,52.48431V89.99817H60V67.48987A2.50024,2.50024,0,0,0,57.5,64.989h-15A2.50024,2.50024,0,0,0,40,67.48987v22.5083H21V52.48431a2.50028,2.50028,0,0,0-2.5-2.50091H13.2998L50,11.11017,86.7002,49.9834Z"/><text x="0" y="115" fill="#000000" font-size="5px" font-weight="bold" font-family="'Helvetica Neue', Helvetica, Arial-Unicode, Arial, Sans-serif">Created by Lnhi</text><text x="0" y="120" fill="#000000" font-size="5px" font-weight="bold" font-family="'Helvetica Neue', Helvetica, Arial-Unicode, Arial, Sans-serif">from the Noun Project</text></svg>