<svg xmlns="http://www.w3.org/2000/svg" xmlns:xlink="http://www.w3.org/1999/xlink" version="1.1" x="0px" y="0px" viewBox="0 0 100 125" style="enable-background:new 0 0 100 100;" xml:space="preserve"><path d="M72.1,78.3c-2.6,0-4.8-2.2-4.8-4.8V25.4c0-2.6,2.2-4.8,4.8-4.8h12.5c2.6,0,4.8,2.2,4.8,4.8v48.1  c0,2.6-2.2,4.8-4.8,4.8H72.1z M72.1,24c-0.8,0-1.4,0.6-1.4,1.4v48.1c0,0.8,0.6,1.4,1.4,1.4h12.5c0.8,0,1.4-0.6,1.4-1.4V25.4  c0-0.8-0.6-1.4-1.4-1.4H72.1z M42.3,78.3c-2.6,0-4.8-2.2-4.8-4.8V43.9c0-2.6,2.2-4.8,4.8-4.8h12.5c2.6,0,4.8,2.2,4.8,4.8v29.6  c0,2.6-2.2,4.8-4.8,4.8H42.3z M42.3,42.5c-0.8,0-1.4,0.6-1.4,1.4v29.6c0,0.8,0.6,1.4,1.4,1.4h12.5c0.8,0,1.4-0.6,1.4-1.4V43.9  c0-0.8-0.6-1.4-1.4-1.4H42.3z M13.1,78.3c-2.6,0-4.8-2.2-4.8-4.8V61.8c0-2.6,2.2-4.8,4.8-4.8h12.5c2.6,0,4.8,2.2,4.8,4.8v11.7  c0,2.6-2.2,4.8-4.8,4.8H13.1z M13.1,60.4c-0.8,0-1.4,0.6-1.4,1.4v11.7c0,0.8,0.6,1.4,1.4,1.4h12.5c0.8,0,1.4-0.6,1.4-1.4V61.8  c0-0.8-0.6-1.4-1.4-1.4H13.1z"/><text x="0" y="115" fill="#000000" font-size="5px" font-weight="bold" font-family="'Helvetica Neue', Helvetica, Arial-Unicode, Arial, Sans-serif">Created by Michelle Fosse</text><text x="0" y="120" fill="#000000" font-size="5px" font-weight="bold" font-family="'Helvetica Neue', Helvetica, Arial-Unicode, Arial, Sans-serif">from the Noun Project</text></svg>